<svg width="40" height="39" viewBox="0 0 40 39" fill="none" xmlns="http://www.w3.org/2000/svg">
<path d="M20.0002 24.072C7.67626 24.072 13.8382 -0.88934 13.8382 13.899C13.8382 28.6874 7.67626 38.8603 20.0002 38.8603C32.3241 38.8603 26.1621 28.6874 26.1621 13.899C26.1621 -0.88934 32.3241 24.072 20.0002 24.072Z" fill="#CBCBE7"/>
<path d="M14.798 20.2925C10.9897 8.57174 36.6335 6.71866 22.5689 11.2885C8.50437 15.8584 -3.07483 13.1416 0.733474 24.8623C4.54178 36.5831 12.3127 27.5791 26.3772 23.0092C40.4418 18.4394 18.6063 32.0132 14.798 20.2925Z" fill="#CBCBE7"/>
<path d="M16.7851 14.1772C26.7554 6.93343 36.4421 30.7494 27.7497 18.7854C19.0574 6.82141 18.063 -5.03059 8.09275 2.21321C-1.87749 9.45702 9.08714 14.0652 17.7795 26.0292C26.4719 37.9933 6.81488 21.421 16.7851 14.1772Z" fill="#CBCBE7"/>
<path d="M23.2149 14.1772C33.1851 21.421 13.5282 37.9933 22.2205 26.0292C30.9129 14.0652 41.8775 9.45702 31.9073 2.21321C21.937 -5.03059 20.9426 6.82141 12.2503 18.7854C3.55791 30.7494 13.2447 6.93343 23.2149 14.1772Z" fill="#CBCBE7"/>
<path d="M25.2019 20.2925C21.3936 32.0132 -0.44183 18.4394 13.6227 23.0092C27.6873 27.5791 35.4582 36.5831 39.2665 24.8623C43.0748 13.1416 31.4956 15.8584 17.431 11.2885C3.36647 6.71866 29.0102 8.57174 25.2019 20.2925Z" fill="#CBCBE7"/>
</svg>
